<svg width="128" height="128" viewBox="0 0 128 128" fill="none" xmlns="http://www.w3.org/2000/svg">
  <title>Logotipo Analisador de Página Web</title>
  <!-- Sombra do Documento para dar profundidade -->
  <rect x="26" y="18" width="76" height="92" rx="4" fill="#000" fill-opacity="0.2"/>
  
  <!-- Documento (Representando a Página Web) -->
  <rect x="22" y="14" width="76" height="92" rx="4" fill="white" stroke="#dadce0" stroke-width="2"/>
  
  <!-- Cabeçalho da Página (Identidade Visual Azul) -->
  <path d="M23 15H97C98.6569 15 100 16.3431 100 18V28H22V18C22 16.3431 23.3431 15 25 15Z" fill="#1a73e8"/>
  
  <!-- Conteúdo Abstrato (Metadados/Texto) -->
  <rect x="34" y="42" width="30" height="6" rx="3" fill="#e8f0fe"/>
  <rect x="34" y="56" width="52" height="6" rx="3" fill="#dadce0"/>
  <rect x="34" y="70" width="40" height="6" rx="3" fill="#dadce0"/>
  <rect x="34" y="84" width="25" height="6" rx="3" fill="#dadce0"/>

  <!-- Lupa (Símbolo de Análise e Inspeção) -->
  <path d="M88.5 88.5L110 110" stroke="#202124" stroke-width="10" stroke-linecap="round"/>
  <circle cx="76" cy="76" r="26" fill="#ffffff" stroke="#1a73e8" stroke-width="8"/>
  <path d="M86 64C90 67 92 71 92 76" stroke="#8ab4f8" stroke-width="4" stroke-linecap="round"/>
</svg>